<?xml version="1.0" standalone="no"?>
<!DOCTYPE svg PUBLIC "-//W3C//DTD SVG 20010904//EN"
 "http://www.w3.org/TR/2001/REC-SVG-20010904/DTD/svg10.dtd">
<svg version="1.0" xmlns="http://www.w3.org/2000/svg"
 width="500.000000pt" height="500.000000pt" viewBox="0 0 500.000000 500.000000"
 preserveAspectRatio="xMidYMid meet">

<g transform="translate(0.000000,500.000000) scale(0.100000,-0.100000)"
fill="#000000" stroke="none">
<path d="M2223 4841 c-285 -77 -522 -268 -651 -526 -43 -86 -86 -213 -96 -285
-16 -102 -10 -95 -109 -144 -92 -45 -178 -110 -235 -176 -54 -64 -405 -574
-443 -645 -43 -79 -70 -150 -96 -245 -16 -59 -17 -155 -20 -1111 -4 -1156 -6
-1125 59 -1257 41 -84 149 -195 233 -239 125 -65 82 -63 1165 -63 864 0 990 2
1044 16 152 39 287 151 356 295 45 96 60 172 60 311 0 117 -2 115 140 148 253
59 602 156 657 182 138 64 231 204 240 360 5 83 4 87 -201 863 -223 841 -234
875 -332 997 -25 32 -145 141 -267 244 -122 102 -228 195 -234 207 -7 12 -13
54 -13 92 0 93 -24 234 -56 337 -105 333 -301 534 -614 628 -66 20 -101 23
-295 26 -193 3 -229 1 -292 -15z m485 -57 c214 -44 288 -81 417 -209 117 -117
170 -201 225 -365 38 -110 78 -324 67 -354 -11 -27 -35 -30 -107 -12 -37 9
-95 16 -128 16 -36 0 -63 5 -69 13 -6 6 -13 45 -17 85 -24 278 -237 482 -545
523 -310 42 -615 -171 -687 -479 -21 -89 -14 -268 15 -375 57 -215 150 -390
284 -533 144 -155 145 -154 -140 -154 l-213 0 -37 58 c-81 126 -165 356 -214
587 -34 158 -34 392 -1 515 71 262 255 487 497 607 96 48 199 78 340 97 52 7
237 -5 313 -20z m-84 -384 c198 -50 355 -197 402 -375 18 -66 18 -159 0 -174
-7 -6 -51 -21 -98 -33 l-84 -22 -44 31 c-64 43 -134 77 -215 104 -65 21 -92
23 -352 27 -327 4 -318 2 -289 85 56 158 196 296 349 346 78 25 96 28 183 30
42 0 102 -7 148 -19z m-89 -525 c33 -8 98 -34 144 -56 128 -63 192 -134 421
-466 206 -298 246 -367 279 -472 40 -132 41 -154 41 -1216 0 -1126 2 -1088
-58 -1199 -38 -70 -130 -160 -203 -196 -119 -60 -105 -60 -1129 -60 -1018 0
-1009 0 -1127 57 -70 34 -167 128 -205 199 -60 111 -58 73 -58 1200 0 1124 0
1118 57 1264 35 90 70 146 281 450 201 291 275 373 386 431 85 44 93 37 107
-92 6 -52 17 -125 25 -162 19 -95 18 -110 -15 -159 -115 -171 -51 -403 138
-495 l56 -28 355 0 355 0 57 28 c126 62 209 205 194 335 -15 123 -90 228 -200
278 -59 27 -68 29 -258 32 -141 3 -200 8 -208 17 -14 16 -47 156 -55 233 -5
44 -3 67 5 77 18 22 529 22 615 0z m753 -100 c34 -8 88 -28 120 -44 66 -33
442 -349 521 -437 100 -112 111 -146 330 -974 109 -415 201 -773 205 -795 7
-53 -17 -167 -48 -219 -14 -23 -45 -61 -69 -83 -78 -72 -57 -65 -630 -213
-157 -41 -201 -49 -213 -40 -12 11 -14 131 -14 839 0 485 -4 862 -10 913 -13
108 -50 230 -101 328 -22 41 -131 207 -244 368 -113 160 -205 298 -205 306 0
22 25 36 92 51 84 18 189 18 266 0z m-1160 -307 c18 -18 15 -49 -8 -85 -12
-20 -28 -33 -40 -33 -23 0 -60 53 -60 86 0 30 19 44 60 44 20 0 41 -5 48 -12z
m250 -7 c75 -23 125 -61 160 -120 24 -40 27 -57 27 -132 0 -78 -3 -90 -30
-134 -32 -52 -105 -115 -133 -115 -9 0 -72 56 -140 125 -124 125 -125 126
-119 165 6 50 55 155 91 198 33 38 57 40 144 13z m-811 -181 c14 -29 99 -221
116 -262 9 -23 8 -31 -6 -45 -16 -17 -19 -16 -53 2 -43 23 -97 86 -119 138
-20 49 -20 146 1 175 20 28 44 25 61 -8z"/>
<path d="M1010 2071 c-7 -15 -6 -23 6 -35 14 -14 122 -16 1039 -16 917 0 1025
2 1039 16 9 8 16 19 16 23 0 30 -26 31 -1057 31 -1010 0 -1033 0 -1043 -19z"/>
<path d="M1016 1714 c-12 -12 -13 -20 -6 -35 10 -18 28 -19 575 -19 547 0 565
1 575 19 7 15 6 23 -6 35 -14 14 -79 16 -569 16 -490 0 -555 -2 -569 -16z"/>
<path d="M2400 1715 c-6 -8 -10 -22 -8 -32 3 -17 25 -18 347 -21 335 -2 371 0
371 29 0 4 -7 15 -16 23 -13 14 -59 16 -348 16 -279 0 -336 -2 -346 -15z"/>
<path d="M1014 1345 c-4 -8 -4 -22 0 -30 5 -13 95 -15 758 -13 l753 3 0 25 0
25 -753 3 c-663 2 -753 0 -758 -13z"/>
<path d="M2754 1345 c-4 -8 -4 -22 0 -30 4 -12 33 -15 169 -15 172 0 196 6
181 44 -5 14 -28 16 -175 16 -142 0 -171 -2 -175 -15z"/>
</g>
</svg>
